<?xml version="1.0" encoding="UTF-8" standalone="no"?>
<!-- Created with Inkscape (http://www.inkscape.org/) -->

<svg
   xmlns:dc="http://purl.org/dc/elements/1.1/"
   xmlns:cc="http://creativecommons.org/ns#"
   xmlns:rdf="http://www.w3.org/1999/02/22-rdf-syntax-ns#"
   xmlns:svg="http://www.w3.org/2000/svg"
   xmlns="http://www.w3.org/2000/svg"
   xmlns:xlink="http://www.w3.org/1999/xlink"
   xmlns:sodipodi="http://sodipodi.sourceforge.net/DTD/sodipodi-0.dtd"
   xmlns:inkscape="http://www.inkscape.org/namespaces/inkscape"
   width="64"
   height="64"
   id="svg5250"
   version="1.1"
   inkscape:version="0.48.4 r9939"
   sodipodi:docname="icon.svg"
   inkscape:export-filename="C:\Users\user\Documents\repos\local\android\KidsMemory\res\drawable-ldpi\ic_launcher.png"
   inkscape:export-xdpi="50.630001"
   inkscape:export-ydpi="50.630001">
  <defs
     id="defs5252">
    <linearGradient
       inkscape:collect="always"
       id="linearGradient3843">
      <stop
         style="stop-color:#ef231c;stop-opacity:1;"
         offset="0"
         id="stop3845" />
      <stop
         style="stop-color:#ef231c;stop-opacity:0.81355932"
         offset="1"
         id="stop3847" />
    </linearGradient>
    <linearGradient
       inkscape:collect="always"
       id="linearGradient3817">
      <stop
         style="stop-color:#bf171a;stop-opacity:1"
         offset="0"
         id="stop3819" />
      <stop
         style="stop-color:#00191a;stop-opacity:1"
         offset="1"
         id="stop3821" />
    </linearGradient>
    <linearGradient
       inkscape:collect="always"
       id="linearGradient3823">
      <stop
         style="stop-color:#000300;stop-opacity:1"
         offset="0"
         id="stop3825" />
      <stop
         style="stop-color:#4d4d4d;stop-opacity:0.57079646"
         offset="1"
         id="stop3827" />
    </linearGradient>
    <linearGradient
       id="linearGradient3822">
      <stop
         id="stop3824"
         offset="0"
         style="stop-color:#d4d4d5;stop-opacity:0.44444445" />
      <stop
         id="stop3826"
         offset="1"
         style="stop-color:#8e8c8c;stop-opacity:0" />
    </linearGradient>
    <linearGradient
       id="linearGradient3804">
      <stop
         style="stop-color:#0f1012;stop-opacity:0.81481481"
         offset="0"
         id="stop3806" />
      <stop
         style="stop-color:#2f2f2b;stop-opacity:0.6137566"
         offset="1"
         id="stop3808" />
    </linearGradient>
    <linearGradient
       id="linearGradient3904"
       inkscape:collect="always">
      <stop
         id="stop3906"
         offset="0"
         style="stop-color:#4d4e4d;stop-opacity:0.09139785" />
      <stop
         id="stop3908"
         offset="1"
         style="stop-color:#e0f1e0;stop-opacity:0.41935483" />
    </linearGradient>
    <linearGradient
       inkscape:collect="always"
       id="linearGradient3788">
      <stop
         style="stop-color:#000000;stop-opacity:0.32978722"
         offset="0"
         id="stop3790" />
      <stop
         style="stop-color:#000000;stop-opacity:0.67553192"
         offset="1"
         id="stop3792" />
    </linearGradient>
    <linearGradient
       inkscape:collect="always"
       id="linearGradient3855">
      <stop
         style="stop-color:#4d4e4d;stop-opacity:0.71808511"
         offset="0"
         id="stop3857" />
      <stop
         style="stop-color:#c6e4c6;stop-opacity:0.09042553"
         offset="1"
         id="stop3859" />
    </linearGradient>
    <linearGradient
       inkscape:collect="always"
       xlink:href="#linearGradient3855"
       id="linearGradient3861"
       x1="21.176706"
       y1="990.16138"
       x2="50.148594"
       y2="1033.2136"
       gradientUnits="userSpaceOnUse" />
    <linearGradient
       inkscape:collect="always"
       xlink:href="#linearGradient3855"
       id="linearGradient3867"
       gradientUnits="userSpaceOnUse"
       x1="21.176706"
       y1="990.16138"
       x2="50.148594"
       y2="1033.2136" />
    <linearGradient
       inkscape:collect="always"
       xlink:href="#linearGradient3788"
       id="linearGradient3794"
       x1="10.212852"
       y1="991.22968"
       x2="56.152611"
       y2="1049.4948"
       gradientUnits="userSpaceOnUse" />
    <linearGradient
       inkscape:collect="always"
       xlink:href="#linearGradient3904"
       id="linearGradient3902"
       gradientUnits="userSpaceOnUse"
       x1="20.791164"
       y1="990.67542"
       x2="54.903614"
       y2="1044.0088"
       gradientTransform="translate(1.9636743e-6,-988.61118)" />
    <linearGradient
       inkscape:collect="always"
       xlink:href="#SVGID_68_"
       id="linearGradient54768"
       gradientUnits="userSpaceOnUse"
       x1="121.1489"
       y1="348.00101"
       x2="121.1489"
       y2="320.53909" />
    <linearGradient
       y2="320.53909"
       x2="121.1489"
       y1="348.00101"
       x1="121.1489"
       gradientUnits="userSpaceOnUse"
       id="SVGID_68_">
      <stop
         id="stop4232"
         style="stop-color:#FF964A;stop-opacity:0"
         offset="0" />
      <stop
         id="stop4234"
         style="stop-color:#FF964A"
         offset="1" />
    </linearGradient>
    <linearGradient
       inkscape:collect="always"
       xlink:href="#SVGID_67_"
       id="linearGradient54766"
       gradientUnits="userSpaceOnUse"
       x1="34.049301"
       y1="348.00101"
       x2="34.049301"
       y2="320.53909" />
    <linearGradient
       y2="320.53909"
       x2="34.049301"
       y1="348.00101"
       x1="34.049301"
       gradientUnits="userSpaceOnUse"
       id="SVGID_67_">
      <stop
         id="stop4197"
         style="stop-color:#FF7585;stop-opacity:0"
         offset="0" />
      <stop
         id="stop4199"
         style="stop-color:#FF7585"
         offset="1" />
    </linearGradient>
    <linearGradient
       inkscape:collect="always"
       xlink:href="#SVGID_74_"
       id="linearGradient54770"
       gradientUnits="userSpaceOnUse"
       x1="643.74799"
       y1="348.00101"
       x2="643.74799"
       y2="320.53909" />
    <linearGradient
       y2="320.53909"
       x2="643.74799"
       y1="348.00101"
       x1="643.74799"
       gradientUnits="userSpaceOnUse"
       id="SVGID_74_">
      <stop
         id="stop4442"
         style="stop-color:#E6DEEB;stop-opacity:0"
         offset="0" />
      <stop
         id="stop4444"
         style="stop-color:#E6DEEB"
         offset="1" />
    </linearGradient>
    <radialGradient
       inkscape:collect="always"
       xlink:href="#linearGradient3822"
       id="radialGradient3820"
       cx="41.381516"
       cy="1014.7075"
       fx="41.381516"
       fy="1014.7075"
       r="31"
       gradientUnits="userSpaceOnUse"
       gradientTransform="matrix(1,1.968876e-6,-1.968876e-6,1,0.00201,-988.36224)" />
    <linearGradient
       id="linearGradient42547"
       gradientUnits="userSpaceOnUse"
       x1="34.049301"
       y1="348.00101"
       x2="34.049301"
       y2="320.53909">
      <stop
         offset="0"
         style="stop-color:#FF7585;stop-opacity:0"
         id="stop42549" />
      <stop
         offset="1"
         style="stop-color:#FF7585"
         id="stop42551" />
    </linearGradient>
    <linearGradient
       inkscape:collect="always"
       xlink:href="#SVGID_67_"
       id="linearGradient3826"
       gradientUnits="userSpaceOnUse"
       x1="34.049301"
       y1="348.00101"
       x2="34.049301"
       y2="320.53909"
       gradientTransform="matrix(0.75915182,0,0,0.75915182,-2.2765493,-235.65594)" />
    <radialGradient
       inkscape:collect="always"
       xlink:href="#SVGID_49_-0"
       id="radialGradient35319"
       gradientUnits="userSpaceOnUse"
       cx="659.84961"
       cy="547.44922"
       r="24.024599" />
    <radialGradient
       gradientUnits="userSpaceOnUse"
       r="24.024599"
       cy="547.44922"
       cx="659.84961"
       id="SVGID_49_-0">
      <stop
         id="stop3939-9"
         style="stop-color:#5F343E"
         offset="0" />
      <stop
         id="stop3941-4"
         style="stop-color:#81454A"
         offset="1" />
    </radialGradient>
    <linearGradient
       inkscape:collect="always"
       xlink:href="#linearGradient3822"
       id="linearGradient3844"
       x1="60.249302"
       y1="59.625446"
       x2="9.5665827"
       y2="5.8285336"
       gradientUnits="userSpaceOnUse"
       gradientTransform="translate(-64.000003,-64.000003)" />
    <linearGradient
       inkscape:collect="always"
       xlink:href="#linearGradient3823"
       id="linearGradient3829"
       x1="57.533764"
       y1="52.867977"
       x2="31.257029"
       y2="35.518578"
       gradientUnits="userSpaceOnUse" />
    <linearGradient
       inkscape:collect="always"
       xlink:href="#linearGradient3817"
       id="linearGradient3824"
       x1="-63.5"
       y1="-32.000004"
       x2="-0.5"
       y2="-32.000004"
       gradientUnits="userSpaceOnUse"
       gradientTransform="translate(64.000004,3.8146973e-6)" />
    <linearGradient
       inkscape:collect="always"
       xlink:href="#linearGradient3843"
       id="linearGradient3849"
       x1="29.543356"
       y1="60.933567"
       x2="30.540558"
       y2="29.828671"
       gradientUnits="userSpaceOnUse" />
  </defs>
  <sodipodi:namedview
     id="base"
     pagecolor="#ffffff"
     bordercolor="#666666"
     borderopacity="1.0"
     inkscape:pageopacity="0.0"
     inkscape:pageshadow="2"
     inkscape:zoom="8.9375"
     inkscape:cx="16.447552"
     inkscape:cy="32"
     inkscape:document-units="px"
     inkscape:current-layer="layer3"
     showgrid="false"
     inkscape:window-width="1317"
     inkscape:window-height="744"
     inkscape:window-x="49"
     inkscape:window-y="24"
     inkscape:window-maximized="1" />
  <metadata
     id="metadata5255">
    <rdf:RDF>
      <cc:Work
         rdf:about="">
        <dc:format>image/svg+xml</dc:format>
        <dc:type
           rdf:resource="http://purl.org/dc/dcmitype/StillImage" />
        <dc:title />
      </cc:Work>
    </rdf:RDF>
  </metadata>
  <g
     inkscape:groupmode="layer"
     id="layer3"
     inkscape:label="bottom"
     style="display:inline">
    <rect
       style="fill:url(#linearGradient3824);fill-opacity:1;stroke:#000000;stroke-opacity:1"
       id="rect6604"
       width="62"
       height="62"
       x="1.0000038"
       y="-63"
       rx="4.9511428"
       ry="4.9511428"
       transform="matrix(0,1,-1,0,0,0)" />
    <path
       transform="matrix(1.1963464,0,0,1.1963464,-6.7443288,-6.4597185)"
       style="fill:none;stroke:#000000;stroke-opacity:1"
       d="m 45.879519,32.899597 c 0,5.536952 -2.780099,10.362737 -6.89487,12.894267 -1.951005,1.200317 -4.202066,0.213093 -6.599105,0.213093 -2.508753,0 -4.857603,0.921932 -6.869913,-0.384259 -3.965473,-2.573987 -6.624063,-7.308502 -6.624063,-12.723101 0,-8.162281 6.041459,-14.779116 13.493976,-14.779116 7.452517,0 13.493975,6.616835 13.493975,14.779116 z"
       id="path3819"
       inkscape:connector-curvature="0"
       sodipodi:nodetypes="sssssss" />
    <path
       style="fill:none;stroke:#000000;stroke-width:1.1669277;stroke-linejoin:round;stroke-miterlimit:4;stroke-opacity:1"
       d="m 23.034514,42.93772 c 0,-3.244916 4.013985,-5.87544 8.965486,-5.87544 4.951501,0 8.965486,2.630524 8.965486,5.87544 0,0 -2.099338,2.251748 -5.16129,2.251748 -3.061952,0 -12.769682,-2.251748 -12.769682,-2.251748 z"
       id="path3826"
       inkscape:connector-curvature="0"
       sodipodi:nodetypes="csczc" />
    <path
       style="fill:#000000;fill-opacity:1;stroke:#000000;stroke-width:0.97437155;stroke-linecap:butt;stroke-linejoin:round;stroke-miterlimit:4;stroke-opacity:1;stroke-dasharray:none"
       d="m 17.261739,15.693328 5.516138,6.516416 4.685299,-1.461045 z"
       id="path3820"
       inkscape:connector-curvature="0" />
    <path
       inkscape:connector-curvature="0"
       id="path3822"
       d="m 45.414428,14.37223 -4.968062,7.027142 -4.832951,-1.056504 z"
       style="fill:#000000;fill-opacity:1;stroke:#000000;stroke-width:0.98216641;stroke-linecap:butt;stroke-linejoin:round;stroke-miterlimit:4;stroke-opacity:1;stroke-dasharray:none" />
    <path
       sodipodi:type="arc"
       style="fill:#000000;fill-opacity:1;stroke:none"
       id="path3852"
       sodipodi:cx="26.517483"
       sodipodi:cy="25.902098"
       sodipodi:rx="2.4615386"
       sodipodi:ry="1.2867132"
       d="m 28.979021,25.902098 a 2.4615386,1.2867132 0 1 1 -4.923077,0 2.4615386,1.2867132 0 1 1 4.923077,0 z"
       transform="matrix(1.2272728,0,0,1.6956522,-6.5441853,-17.123747)" />
    <path
       transform="matrix(1.2272728,0,0,1.6956522,5.4558147,-17.123747)"
       d="m 28.979021,25.902098 a 2.4615386,1.2867132 0 1 1 -4.923077,0 2.4615386,1.2867132 0 1 1 4.923077,0 z"
       sodipodi:ry="1.2867132"
       sodipodi:rx="2.4615386"
       sodipodi:cy="25.902098"
       sodipodi:cx="26.517483"
       id="path3824"
       style="fill:#000000;fill-opacity:1;stroke:none"
       sodipodi:type="arc" />
    <path
       style="fill:url(#linearGradient3849);fill-opacity:1;stroke:#000000;stroke-width:0.2;stroke-linecap:butt;stroke-linejoin:miter;stroke-miterlimit:4;stroke-opacity:1;stroke-dasharray:none"
       d="M 9.84375,30 1,48.8125 l 0,9.25 C 1,60.805433 3.1945669,63 5.9375,63 l 52.125,0 C 60.805433,63 63,60.805433 63,58.0625 L 63,41.75 61.65625,39.28125 61.875,59.0625 58.1875,49.21875 C 49.9532,35.593612 54.975712,39.443363 53.375,34.5625 c 0,0 -12.486963,20.497619 -9.96875,20.9375 1.142999,0.199659 -5.715485,-25.284515 -6.375,-24.625 C 36.608167,43.89752 31.355298,48.965099 25.96875,53.8125 24.779829,44.553504 21.544886,37.340531 18,30.4375 c 0,0 -0.39978,22.40868 -0.875,23.03125 C 13.961337,57.613359 8.3698836,31.565983 9.84375,30 z"
       id="path3838"
       inkscape:connector-curvature="0"
       sodipodi:nodetypes="ccsssscccccscccsc" />
    <path
       sodipodi:nodetypes="ccsssscccccscccsc"
       inkscape:connector-curvature="0"
       id="path3851"
       d="M 6.5989948,31.230769 1,48.8125 l 0,9.25 C 1,60.805433 3.1945669,63 5.9375,63 l 52.125,0 C 60.805433,63 63,60.805433 63,58.0625 L 63,41.75 58.523383,39.616914 61.875,59.0625 58.1875,49.21875 C 49.9532,35.593612 48.709978,42.800006 47.109266,37.919143 c 0,0 -6.221229,17.140976 -3.703016,17.580857 C 44.549249,55.699659 33.439017,34.691009 32.779502,35.350524 32.356419,48.373044 31.355298,48.965099 25.96875,53.8125 24.779829,44.553504 17.516914,41.256615 13.972028,34.353584 c 0,0 3.628192,18.492596 3.152972,19.115166 C 13.961337,57.613359 5.1251284,32.796752 6.5989948,31.230769 z"
       style="fill:url(#linearGradient3849);fill-opacity:1;stroke:#000000;stroke-width:0.2;stroke-linecap:butt;stroke-linejoin:miter;stroke-miterlimit:4;stroke-opacity:1;stroke-dasharray:none" />
    <path
       sodipodi:nodetypes="ccsssscccccscccsc"
       inkscape:connector-curvature="0"
       id="path3853"
       d="M 2.6829108,37.608392 1,48.8125 l 0,9.25 C 1,60.805433 3.1945669,63 5.9375,63 l 52.125,0 C 60.805433,63 63,60.805433 63,58.0625 L 63,41.75 57.963942,41.407124 52.36451,54.363199 50.802885,51.00896 c -8.2343,-13.625138 -4.666334,-4.628534 -6.267046,-9.509397 0,0 -3.647802,13.560556 -1.129589,14.000437 1.142999,0.199659 -0.68052,-19.690109 -1.340035,-19.030594 -0.423083,13.02252 -4.780847,10.257931 -10.167395,15.105332 -1.188921,-9.258996 -4.423864,-6.402039 -7.96875,-13.30507 0,0 -10.46971,7.415673 -10.94493,8.038243 C 9.8214769,50.45252 1.2090444,39.174375 2.6829108,37.608392 z"
       style="fill:url(#linearGradient3849);fill-opacity:1;stroke:#000000;stroke-width:0.2;stroke-linecap:butt;stroke-linejoin:miter;stroke-miterlimit:4;stroke-opacity:1;stroke-dasharray:none" />
  </g>
  <g
     inkscape:groupmode="layer"
     id="layer4"
     inkscape:label="border"
     style="display:inline" />
  <g
     inkscape:groupmode="layer"
     id="layer5"
     inkscape:label="dots_shadow"
     style="display:inline" />
  <g
     inkscape:label="dots"
     inkscape:groupmode="layer"
     id="layer1"
     transform="translate(0,-988.36218)"
     style="display:inline">
    <path
       inkscape:connector-curvature="0"
       style="fill:none;stroke:none"
       d="m 1,998.31123 0,-3.9979 c 0,-2.74294 2.2082097,-4.95115 4.9511428,-4.95115 l 0,0 0,0 52.0977142,0 c 2.742933,0 4.951143,2.20821 4.951143,4.95115 l 0,3.9979"
       id="path7387" />
    <path
       inkscape:connector-curvature="0"
       style="fill:none;stroke:none"
       d="m 1,1046.411 c 0,0 0,0 0,0 l 0,-48.09977"
       id="path7385" />
    <path
       inkscape:connector-curvature="0"
       style="fill:none;stroke:none"
       d="m 63,1046.411 c 0,2.743 -2.20821,4.9512 -4.951143,4.9512 l -52.0977142,0 C 3.2082097,1051.3622 1,1049.154 1,1046.411"
       id="path7383" />
    <path
       inkscape:connector-curvature="0"
       style="fill:none;stroke:none"
       d="m 63,998.31123 0,48.09977 c 0,0 0,0 0,0"
       id="rect7376" />
  </g>
  <g
     inkscape:groupmode="layer"
     id="layer2"
     inkscape:label="top glas"
     style="display:inline" />
</svg>
